<?xml version="1.0" encoding="UTF-8"?>
<svg version="1.1" xmlns="http://www.w3.org/2000/svg" width="150" height="150">
<path d="M0 0 C7.73710741 -0.10216144 15.47403824 -0.17178288 23.21166992 -0.21972656 C25.83901469 -0.23973214 28.46631556 -0.26694537 31.09350586 -0.30175781 C34.88927096 -0.35076332 38.68444289 -0.37308051 42.48046875 -0.390625 C43.63830368 -0.41127014 44.79613861 -0.43191528 45.98905945 -0.45318604 C57.50994381 -0.45629334 68.45022738 1.87348345 77 10 C82.56501924 15.86583109 84.54093904 21.97337969 84.375 29.9375 C84.36484863 30.64189209 84.35469727 31.34628418 84.34423828 32.07202148 C84.11205221 39.84125525 82.24929281 45.55938968 76.92578125 51.33203125 C70.54540891 56.8582361 63.22390508 59.65181884 55 61 C55.64066406 61.35191406 56.28132813 61.70382813 56.94140625 62.06640625 C64.91020109 66.61491359 70.38530321 71.23604275 75.26953125 79.03515625 C75.88030518 80.00686768 76.4910791 80.9785791 77.12036133 81.97973633 C78.91607895 84.86515297 80.70858373 87.75253639 82.5 90.640625 C83.0775 91.56617187 83.655 92.49171875 84.25 93.4453125 C85.42369215 95.32636376 86.59029107 97.21185821 87.75 99.1015625 C92.48467096 106.64744435 97.06923683 113.70038174 105.9375 116.4375 C106.89527344 116.74558594 107.85304687 117.05367188 108.83984375 117.37109375 C109.55269531 117.57863281 110.26554688 117.78617187 111 118 C110.67 118.66 110.34 119.32 110 120 C90.73921936 120.73974549 90.73921936 120.73974549 82.5625 113.375 C74.67607932 104.92428045 69.61156972 94.08196783 64.25 83.9375 C59.9986236 75.97113581 54.53536465 65.9902721 45.33203125 63.1875 C42.88947199 62.69140898 40.47490737 62.28882219 38 62 C37.67 61.01 37.34 60.02 37 59 C38.0621875 58.90203125 39.124375 58.8040625 40.21875 58.703125 C50.75950743 57.63023315 58.60381519 56.45278264 66 48 C66.556875 47.38125 67.11375 46.7625 67.6875 46.125 C72.34861562 38.57843185 72.23316568 28.51601656 70.34765625 20.08203125 C68.00494202 13.43596212 64.33737995 9.3490288 58.16796875 6.0078125 C52.32598592 3.3350099 46.86679221 2.82640151 40.5 2.75 C39.2109375 2.72421875 37.921875 2.6984375 36.59375 2.671875 C32.79058432 3.01912056 30.96961761 3.64814956 28 6 C25.94755929 9.95827851 24.8080682 13.64541023 24 18 C24.60585938 18.14695312 25.21171875 18.29390625 25.8359375 18.4453125 C34.17796908 20.67841018 42.49380022 24.15688372 48.02954102 31.09350586 C50.05672897 35.07597397 49.50429066 39.51987673 49.3125 43.875 C49.28994141 44.84953125 49.26738281 45.8240625 49.24414062 46.828125 C49.18550753 49.22035515 49.10351153 51.6093615 49 54 C45.98258618 52.49129309 45.93414683 50.272814 44.875 47.125 C41.10214109 37.05666685 35.87789195 28.7766332 26 24 C25.34 23.67 24.68 23.34 24 23 C24 37.19 24 51.38 24 66 C16 65 16 65 13 64 C12.67 49.81 12.34 35.62 12 21 C2.35384072 23.89384778 -4.15266823 25.96067828 -9.11328125 34.6953125 C-11.08713992 39.82560595 -11.11605821 45.14348097 -9.11328125 50.26953125 C-2.27880164 62.1447234 9.62780066 65.73395302 22.0625 69.4375 C33.38311047 72.84451818 45.25310368 78.16650348 51.4375 88.8125 C51.953125 89.864375 52.46875 90.91625 53 92 C53.33 92.66 53.66 93.32 54 94 C54.8875631 104.95631165 53.73358871 112.57778226 46.875 121.1875 C39.52105324 129.00885863 30.58907406 132.79114852 20 134 C5.64654142 134.33939212 -6.81438104 131.40186577 -18 122 C-18.53093262 121.63342285 -19.06186523 121.2668457 -19.60888672 120.88916016 C-22.54537089 118.56541716 -23.84266319 116.9316207 -24.47705078 113.17529297 C-24.59063846 109.80586465 -24.52324893 106.49291151 -24.375 103.125 C-24.34792969 101.9596875 -24.32085938 100.794375 -24.29296875 99.59375 C-24.22248125 96.72725828 -24.12399461 93.86459345 -24 91 C-23.01 90.505 -23.01 90.505 -22 90 C-21.63648438 91.19496094 -21.27296875 92.38992187 -20.8984375 93.62109375 C-17.40751269 104.7810304 -13.920834 113.99412333 -5 122 C-3.88625 123.051875 -3.88625 123.051875 -2.75 124.125 C5.09988243 129.47719257 13.70792595 129.93976658 23 129 C30.9925734 127.07787297 37.07837774 122.95832693 41.9375 116.375 C43.76563664 110.56797772 44.13552662 104.55077373 42.26171875 98.69140625 C38.61424674 91.88721301 31.17407251 87.3913575 24 85 C24.42726277 95.87455531 24.42726277 95.87455531 28 106 C31.14321752 108.56420377 34.01429888 109.43061413 38 110 C38 110.66 38 111.32 38 112 C25.46 112 12.92 112 0 112 C0 111.34 0 110.68 0 110 C1.0725 109.773125 2.145 109.54625 3.25 109.3125 C7.41998137 107.85300652 8.67299718 106.66950445 11 103 C11.94137255 100.17588235 12.11725382 98.47081968 12.09765625 95.55078125 C12.09443359 94.70322266 12.09121094 93.85566406 12.08789062 92.98242188 C12.07951172 92.10134766 12.07113281 91.22027344 12.0625 90.3125 C12.05798828 89.41982422 12.05347656 88.52714844 12.04882812 87.60742188 C12.03704983 85.40488013 12.02060164 83.20247401 12 81 C10.97261719 80.61070313 9.94523437 80.22140625 8.88671875 79.8203125 C-2.35961452 75.36231877 -11.75314074 70.07217853 -18.1875 59.3125 C-21.32582402 52.01273533 -21.36918576 43.5900897 -19.11328125 36.02734375 C-15.29758153 27.62266298 -9.4490351 23.27073058 -1.11328125 19.76171875 C2.43530953 18.48265183 5.47180071 17.87453001 9.25 17.9375 C11.10625 17.9684375 11.10625 17.9684375 13 18 C12.74279326 16.41439607 12.46861201 14.83154076 12.1875 13.25 C12.03667969 12.36828125 11.88585938 11.4865625 11.73046875 10.578125 C10.92142812 7.7226875 10.05674575 6.13292152 8 4 C5.97993559 3.10594825 5.97993559 3.10594825 3.8125 2.75 C1.9253125 2.37875 1.9253125 2.37875 0 2 C0 1.34 0 0.68 0 0 Z " fill="#FAFAFA" transform="translate(31,8)"/>
</svg>
